<?xml version="1.0" encoding="utf-8"?>
<!-- Generator: Adobe Illustrator 15.0.2, SVG Export Plug-In . SVG Version: 6.00 Build 0)  -->
<!DOCTYPE svg PUBLIC "-//W3C//DTD SVG 1.1//EN" "http://www.w3.org/Graphics/SVG/1.1/DTD/svg11.dtd">
<svg version="1.1" id="Layer_1" xmlns="http://www.w3.org/2000/svg" xmlns:xlink="http://www.w3.org/1999/xlink" x="0px" y="0px"
	 width="512px" height="487.619px" viewBox="0 0 512 487.619" enable-background="new 0 0 512 487.619" xml:space="preserve">
<path d="M329.143,121.904C430.131,121.904,512,203.773,512,304.762s-81.869,182.857-182.857,182.857S146.286,405.75,146.286,304.762
	S228.154,121.904,329.143,121.904z M329.143,148.029c-7.929,0-15.714,0.59-23.333,1.721c-1.619,3.548-2.786,7.44-2.786,11.339
	c0,13.06-13.071-13.06-26.119,13.06c-13.071,26.125,0,0,0,26.125c0,13.06-18.904,3.607-13.071,6.53
	c13.071,6.529,13.071,6.529,0,19.589c0,0-26.119-13.06-26.119,0s-13.06,13.06-26.125,13.06c-13.06,0,0,26.119-13.06,26.119
	c-10.041,0-4.643-15.429-13.481-22.571c-3.363,7.833-6.102,15.988-8.161,24.404c8.804,7.894,10.274,39.048,21.643,50.417
	c13.06-13.06,13.06,0,26.125,0c13.06,0,13.06,0,19.59,13.06c13.065,0,19.589,13.071,32.66,26.119
	c13.048,13.071,39.179,13.071,39.179,26.131s-13.06,0-13.06,26.119c0,13.06,0,13.06-13.071,13.06
	c-8.214,0-16.44,15.536-21.404,27.048c18.643,7.81,39.119,12.143,60.595,12.143c43.869,0,83.524-18.023,111.977-47.071
	l-7.488-14.977c0,0,16.321-26.119,3.273-39.179c-13.071-13.06-13.071-26.131-13.071-26.131s-26.119,26.131-39.179,13.071
	c-13.059-13.071-13.059,0-26.131-26.118c-13.047-26.132,13.072-39.191,13.072-39.191s0-26.118,13.059-26.118
	c13.06,0,26.119-26.119,52.25,0c0,0,15.096-10.072,36.453-12.524c-6.715-15.69-15.881-30.06-27.071-42.625
	c-2.334,1.69-5.405,2.899-9.382,2.899c-13.071,0,13.048,26.131,0,26.131c-13.071,0-13.071-13.071-26.131-13.071
	s-13.06,13.071-26.119,26.118c-13.059,13.072,0,0-13.059-13.047c-13.072-13.071,26.118,0,13.059-13.071
	c-13.059-13.06,13.06-13.06,13.06-26.119c0-10.244,16.072-12.453,23-12.929c-7.535-5.435-15.571-10.221-23-13.19
	c13.06,13.06-13.06,26.119-26.118,26.119c-12.274,0-1.5-23.048-0.144-36.673C358,150.042,343.81,148.029,329.143,148.029z
	 M172.411,304.762c0,46.096,19.898,87.548,51.583,116.238l-12.405-24.81c-13.06,0-19.589-29.381-19.589-42.452
	c0-10.477-4.208-18.857,0.881-28.5c-18.423-18.524-7.41-8.477-7.41-20.477c0-6.214-5.923-12.429-12.125-17.238L172.411,304.762z
	 M0,0h487.619v191.029c-10.381-14.446-22.702-27.422-36.571-38.535V60.952H36.571v243.81h97.524c0,12.5,1.178,24.727,3.422,36.571H0
	V0z"/>
</svg>
